<svg xmlns="http://www.w3.org/2000/svg" fill="none" viewBox="0 0 48 48" id="Mail-Open--Streamline-Ionic-Filled" height="48" width="48"><desc>Mail Open Streamline Icon: https://streamlinehq.com</desc><path fill="#000000" d="M44.2303 13.4874 25.9005 4.4312c-0.5916 -0.2902 -1.2417 -0.441 -1.9006 -0.441 -0.6588 0 -1.3088 0.1508 -1.9004 0.441L3.7696 13.4874c-0.987 0.479 -1.8191 1.2262 -2.4009 2.1562 -0.5818 0.93 -0.8898 2.0051 -0.8887 3.1022v19.3841c0 3.2423 2.6691 5.8799 5.9503 5.8799h35.1393c3.2813 0 5.9504 -2.6376 5.9504 -5.8799V18.7458c0.0011 -1.0971 -0.307 -2.1722 -0.8887 -3.1022 -0.5819 -0.93 -1.4141 -1.6772 -2.401 -2.1562ZM23.6199 7.4363c0.1183 -0.058 0.2483 -0.0882 0.38 -0.0882 0.1319 0 0.2619 0.0302 0.3802 0.0882l17.7849 8.7843 -18.06 8.9249c-0.1184 0.0582 -0.2483 0.0883 -0.3802 0.0883 -0.1317 0 -0.2617 -0.0301 -0.3801 -0.0883l-17.788 -8.7852 18.0632 -8.924Z" stroke-width="1"></path></svg>