<svg viewBox="0 0 16 16" fill="none" xmlns="http://www.w3.org/2000/svg" id="Copyright--Streamline-Solar" height="16" width="16"><desc>Copyright Streamline Icon: https://streamlinehq.com</desc><path fill-rule="evenodd" clip-rule="evenodd" d="M8 14.666666666666666C4.318099999999999 14.666666666666666 1.3333333333333333 11.681866666666666 1.3333333333333333 8 1.3333333333333333 4.318099999999999 4.318099999999999 1.3333333333333333 8 1.3333333333333333c3.6818666666666666 0 6.666666666666666 2.9847666666666663 6.666666666666666 6.666666666666666 0 3.6818666666666666 -2.9848 6.666666666666666 -6.666666666666666 6.666666666666666Zm0.19046666666666667 -8.833333333333332C6.8556 5.833333333333333 5.833333333333333 6.835333333333333 5.833333333333333 8s1.0222666666666667 2.1666666666666665 2.357133333333333 2.1666666666666665c0.34113333333333334 0 0.6635333333333333 -0.06639999999999999 0.9540666666666666 -0.18486666666666665 0.25566666666666665 -0.10426666666666667 0.5475333333333333 0.018466666666666666 0.6517999999999999 0.2742 0.10426666666666667 0.25566666666666665 -0.018533333333333332 0.5474666666666667 -0.2742 0.6517333333333333 -0.40946666666666665 0.16699999999999998 -0.8600666666666666 0.25893333333333335 -1.3316666666666666 0.25893333333333335C6.369426666666667 11.166666666666666 4.833333333333333 9.7808 4.833333333333333 8c0 -1.7808333333333333 1.536093333333333 -3.1666666666666665 3.3571333333333335 -3.1666666666666665 0.4716 0 0.9221999999999999 0.09194 1.3316666666666666 0.2589066666666666 0.25566666666666665 0.10427333333333333 0.3784666666666666 0.3960866666666667 0.2742 0.6517866666666666 -0.10426666666666667 0.25569333333333333 -0.3961333333333333 0.3784533333333333 -0.6517999999999999 0.27418 -0.2905333333333333 -0.11846666666666666 -0.6129333333333333 -0.18487333333333333 -0.9540666666666666 -0.18487333333333333Z" fill="#000000" stroke-width="0.6667"></path></svg>