<svg viewBox="0 0 16 16" fill="none" xmlns="http://www.w3.org/2000/svg" id="Target--Streamline-Solar" height="16" width="16"><desc>Target Streamline Icon: https://streamlinehq.com</desc><path fill-rule="evenodd" clip-rule="evenodd" d="M7.4986 1.3333333333333333C4.206193333333333 1.5774533333333332 1.5774533333333332 4.206193333333333 1.3333333333333333 7.4986h1.98704c0.27690666666666663 0 0.5013866666666666 0.22446666666666665 0.5013866666666666 0.5014s-0.22448 0.5014 -0.5013866666666666 0.5014H1.3333333333333333c0.24412 3.2923999999999998 2.8728599999999997 5.921133333333334 6.165266666666666 6.165266666666666v-1.9870666666666665c0 -0.27686666666666665 0.22446666666666665 -0.5013333333333333 0.5014 -0.5013333333333333s0.5014 0.22446666666666665 0.5014 0.5013333333333333V14.666666666666666c3.2923999999999998 -0.24413333333333334 5.921133333333334 -2.872866666666667 6.165266666666666 -6.165266666666666h-1.9870666666666665c-0.27686666666666665 0 -0.5013333333333333 -0.22446666666666665 -0.5013333333333333 -0.5014s0.22446666666666665 -0.5014 0.5013333333333333 -0.5014H14.666666666666666C14.422533333333334 4.206193333333333 11.7938 1.5774533333333332 8.5014 1.3333333333333333v1.98704c0 0.27690666666666663 -0.22446666666666665 0.5013866666666666 -0.5014 0.5013866666666666s-0.5014 -0.22448 -0.5014 -0.5013866666666666V1.3333333333333333ZM6.161573333333333 8c0 -0.2769333333333333 0.22448 -0.5014 0.5013866666666666 -0.5014h0.8356399999999999V6.66296c0 -0.27690666666666663 0.22446666666666665 -0.5013866666666666 0.5014 -0.5013866666666666s0.5014 0.22448 0.5014 0.5013866666666666v0.8356399999999999h0.8356666666666667c0.27686666666666665 0 0.5013333333333333 0.22446666666666665 0.5013333333333333 0.5014s-0.22446666666666665 0.5014 -0.5013333333333333 0.5014h-0.8356666666666667v0.8356666666666667c0 0.27686666666666665 -0.22446666666666665 0.5013333333333333 -0.5014 0.5013333333333333s-0.5014 -0.22446666666666665 -0.5014 -0.5013333333333333v-0.8356666666666667H6.66296c-0.27690666666666663 0 -0.5013866666666666 -0.22446666666666665 -0.5013866666666666 -0.5014Z" fill="#000000" stroke-width="0.6667"></path></svg>